<svg width="54" height="12" viewBox="0 0 54 12" fill="none" xmlns="http://www.w3.org/2000/svg">
<path d="M53.3035 12H49.2369C47.848 12 46.8147 11.7222 46.1369 11.1667C45.4702 10.6111 45.1369 9.75556 45.1369 8.6V3.41667C45.1369 2.26111 45.4702 1.40556 46.1369 0.85C46.8147 0.283333 47.848 0 49.2369 0H53.3035C53.5147 0 53.6647 0.05 53.7535 0.15C53.8535 0.238889 53.9035 0.388889 53.9035 0.6V2.61667C53.9035 2.82778 53.8535 2.98333 53.7535 3.08333C53.6647 3.17222 53.5147 3.21667 53.3035 3.21667H49.9535C49.6091 3.21667 49.3535 3.28889 49.1869 3.43333C49.0202 3.56667 48.9369 3.77222 48.9369 4.05V8.01667C48.9369 8.29444 49.0202 8.5 49.1869 8.63333C49.3535 8.75556 49.6091 8.81667 49.9535 8.81667H53.3035C53.5147 8.81667 53.6647 8.86667 53.7535 8.96667C53.8535 9.05556 53.9035 9.20556 53.9035 9.41667V11.4C53.9035 11.6111 53.8535 11.7667 53.7535 11.8667C53.6647 11.9556 53.5147 12 53.3035 12Z" fill="white"/>
<path d="M35.5625 12C35.3514 12 35.1958 11.9556 35.0958 11.8667C35.0069 11.7667 34.9625 11.6111 34.9625 11.4V9.41667C34.9625 9.20556 35.0069 9.05556 35.0958 8.96667C35.1958 8.86667 35.3514 8.81667 35.5625 8.81667H37.2125V3.21667H35.5625C35.3514 3.21667 35.1958 3.17222 35.0958 3.08333C35.0069 2.98333 34.9625 2.82778 34.9625 2.61667V0.6C34.9625 0.388889 35.0069 0.238889 35.0958 0.15C35.1958 0.05 35.3514 0 35.5625 0H42.6625C42.8736 0 43.0236 0.05 43.1125 0.15C43.2125 0.238889 43.2625 0.388889 43.2625 0.6V2.61667C43.2625 2.82778 43.2125 2.98333 43.1125 3.08333C43.0236 3.17222 42.8736 3.21667 42.6625 3.21667H41.0458V8.81667H42.6625C42.8736 8.81667 43.0236 8.86667 43.1125 8.96667C43.2125 9.05556 43.2625 9.20556 43.2625 9.41667V11.4C43.2625 11.6111 43.2125 11.7667 43.1125 11.8667C43.0236 11.9556 42.8736 12 42.6625 12H35.5625Z" fill="white"/>
<path d="M29.9558 12H24.6891C24.478 12 24.3225 11.9556 24.2225 11.8667C24.1336 11.7667 24.0891 11.6111 24.0891 11.4V9.45C24.0891 9.23889 24.1336 9.08889 24.2225 9C24.3225 8.9 24.478 8.85 24.6891 8.85H29.1725C29.3169 8.85 29.4225 8.80556 29.4891 8.71667C29.5669 8.61667 29.6058 8.5 29.6058 8.36667C29.6058 8.17778 29.5669 8.03889 29.4891 7.95C29.4225 7.86111 29.3169 7.81111 29.1725 7.8L26.6725 7.45C25.8947 7.33889 25.2669 7.08333 24.7891 6.68333C24.3225 6.28333 24.0891 5.61667 24.0891 4.68333V2.93333C24.0891 1.98889 24.3947 1.26667 25.0058 0.766667C25.6169 0.255556 26.4614 0 27.5391 0H32.2058C32.4169 0 32.5669 0.05 32.6558 0.15C32.7558 0.238889 32.8058 0.388889 32.8058 0.6V2.58333C32.8058 2.79444 32.7558 2.95 32.6558 3.05C32.5669 3.13889 32.4169 3.18333 32.2058 3.18333H28.3225C28.178 3.18333 28.0669 3.23333 27.9891 3.33333C27.9114 3.42222 27.8725 3.53889 27.8725 3.68333C27.8725 3.82778 27.9114 3.95 27.9891 4.05C28.0669 4.15 28.178 4.20556 28.3225 4.21667L30.8058 4.55C31.5836 4.66111 32.2114 4.91667 32.6891 5.31667C33.1669 5.71667 33.4058 6.38333 33.4058 7.31667V9.06667C33.4058 10.0111 33.0947 10.7389 32.4725 11.25C31.8614 11.75 31.0225 12 29.9558 12Z" fill="white"/>
<path d="M16.5646 3.5L15.7813 6.03333H18.3979L17.6146 3.5C17.5702 3.4 17.5202 3.32778 17.4646 3.28333C17.4202 3.23889 17.3646 3.21667 17.2979 3.21667H16.8813C16.8146 3.21667 16.7535 3.23889 16.6979 3.28333C16.6535 3.32778 16.609 3.4 16.5646 3.5ZM15.6146 11.4C15.6146 11.6111 15.5646 11.7667 15.4646 11.8667C15.3757 11.9556 15.2257 12 15.0146 12H12.5646C12.3535 12 12.1979 11.9556 12.0979 11.8667C12.009 11.7667 11.9646 11.6111 11.9646 11.4V7C11.9646 6.66667 12.0146 6.28333 12.1146 5.85C12.2257 5.41667 12.3924 4.91111 12.6146 4.33333L14.0646 0.55C14.1313 0.361111 14.2313 0.222222 14.3646 0.133334C14.509 0.0444445 14.6924 0 14.9146 0H19.3979C19.6091 0 19.7813 0.0444445 19.9146 0.133334C20.0591 0.222222 20.1646 0.361111 20.2313 0.55L21.6813 4.33333C21.9035 4.91111 22.0646 5.41667 22.1646 5.85C22.2757 6.28333 22.3313 6.66667 22.3313 7V11.4C22.3313 11.6111 22.2813 11.7667 22.1813 11.8667C22.0924 11.9556 21.9424 12 21.7313 12H19.2146C18.9924 12 18.8257 11.9556 18.7146 11.8667C18.6146 11.7667 18.5646 11.6111 18.5646 11.4V9.06667H15.6146V11.4Z" fill="white"/>
<path d="M7.13792 12H0.737909C0.526798 12 0.371242 11.9556 0.271242 11.8667C0.182353 11.7667 0.137909 11.6111 0.137909 11.4V0.6C0.137909 0.388889 0.182353 0.238889 0.271242 0.15C0.371242 0.05 0.526798 0 0.737909 0H6.05458C7.14347 0 7.94903 0.211111 8.47125 0.633333C8.99347 1.04444 9.25458 1.68333 9.25458 2.55V3.35C9.25458 3.81667 9.17125 4.2 9.00458 4.5C8.84903 4.78889 8.60458 5.00556 8.27125 5.15C8.98236 5.21667 9.51014 5.46111 9.85458 5.88333C10.199 6.30556 10.3713 6.92222 10.3713 7.73333V9.26667C10.3713 10.2 10.1046 10.8889 9.57125 11.3333C9.04903 11.7778 8.23792 12 7.13792 12ZM3.88791 2.83333V4.63333H5.30458C5.51569 4.63333 5.67125 4.57778 5.77125 4.46667C5.88236 4.35556 5.93791 4.18889 5.93791 3.96667V3.5C5.93791 3.27778 5.88236 3.11111 5.77125 3C5.67125 2.88889 5.51569 2.83333 5.30458 2.83333H3.88791ZM3.88791 7.2V9.16667H6.05458C6.26569 9.16667 6.42125 9.11111 6.52125 9C6.63236 8.88889 6.68791 8.72222 6.68791 8.5V7.85C6.68791 7.62778 6.63236 7.46667 6.52125 7.36667C6.42125 7.25556 6.26569 7.2 6.05458 7.2H3.88791Z" fill="white"/>
</svg>
