<svg width="150" height="31" viewBox="0 0 150 31" fill="none" xmlns="http://www.w3.org/2000/svg">
<path d="M144.635 19.264V11.04H138.715V6.72H144.635V0H149.435V30.272H125.115V19.264H144.635ZM135.195 17.088H130.267L131.227 11.776H123.515V7.776H131.963L132.571 4.48H123.035V0.16H137.499V4.256L135.195 17.088ZM129.787 26.08H144.731V23.424H129.787V26.08Z" fill="#2C81FE"/>
<path d="M93.1163 0.128H108.124V4.416H97.8523V11.904H108.124V16.192H93.1163V0.128ZM106.396 24.096L100.38 30.272H94.1083L104.7 19.488H108.092L118.684 30.272H112.412L106.396 24.096ZM117.852 7.712H121.116V11.552H117.852V20.48H113.34V0H117.852V7.712Z" fill="#2C81FE"/>
<path d="M77.3095 26.016H83.2935V22.144H73.8855V30.272H68.9255V22.144H61.5975V17.888H83.2935V0H87.9975V30.272H77.3095V26.016ZM78.7815 0.16V4.576L74.4615 7.872L78.9415 10.72V16.384L70.6855 10.752L63.0375 16.544V10.88L71.4855 4.576H63.0375V0.16H78.7815Z" fill="#2C81FE"/>
<path d="M46.6868 0V17.44H36.6708V25.6H47.0388V29.952H31.9988V12.672H42.0148V4.512H31.9988V0H46.6868ZM52.8628 6.816V0H57.2788V30.272H52.8628V20.992H48.6388V16.64H52.8628V11.168H48.6388V6.816H52.8628Z" fill="#2C81FE"/>
<path d="M6.816 25.12V26.72H25.696V30.272H2.304V21.76H21.216V20.096H2.304V16.576H21.216V0H25.696V4.096H28.96V8.416H25.696V25.12H6.816ZM11.68 0.16L18.08 14.656H12.864L9.024 5.856L5.216 14.656H0L6.4 0.16H11.68Z" fill="#2C81FE"/>
</svg>
