<svg width="33" height="12" viewBox="0 0 33 12" fill="none" xmlns="http://www.w3.org/2000/svg">
<path d="M32.95 8.736C32.95 9.22667 32.8754 9.67467 32.726 10.08C32.5874 10.4747 32.3314 10.816 31.958 11.104C31.5954 11.3813 31.0887 11.6 30.438 11.76C29.798 11.92 28.982 12 27.99 12C26.998 12 26.1767 11.92 25.526 11.76C24.8754 11.6 24.3634 11.3813 23.99 11.104C23.6274 10.816 23.3714 10.4747 23.222 10.08C23.0834 9.67467 23.014 9.22667 23.014 8.736V3.28C23.014 2.78933 23.0834 2.34667 23.222 1.952C23.3714 1.54667 23.6274 1.2 23.99 0.912C24.3634 0.624 24.8754 0.4 25.526 0.24C26.1767 0.0799999 26.998 0 27.99 0C28.982 0 29.798 0.0799999 30.438 0.24C31.0887 0.4 31.5954 0.624 31.958 0.912C32.3314 1.2 32.5874 1.54667 32.726 1.952C32.8754 2.34667 32.95 2.78933 32.95 3.28V8.736ZM26.646 8.16C26.646 8.37333 26.726 8.55467 26.886 8.704C27.046 8.84267 27.414 8.912 27.99 8.912C28.566 8.912 28.934 8.84267 29.094 8.704C29.254 8.55467 29.334 8.37333 29.334 8.16V3.856C29.334 3.65333 29.254 3.48267 29.094 3.344C28.934 3.19467 28.566 3.12 27.99 3.12C27.414 3.12 27.046 3.19467 26.886 3.344C26.726 3.48267 26.646 3.65333 26.646 3.856V8.16Z" fill="white"/>
<path d="M14.9936 3.11999V5.16799H16.1936C16.4709 5.16799 16.6576 5.09866 16.7536 4.95999C16.8496 4.81066 16.8976 4.62932 16.8976 4.41599V3.87199C16.8976 3.65866 16.8496 3.48266 16.7536 3.34399C16.6576 3.19466 16.4709 3.11999 16.1936 3.11999H14.9936ZM14.4176 11.76H11.9536C11.7509 11.76 11.6016 11.7173 11.5056 11.632C11.4202 11.536 11.3776 11.3867 11.3776 11.184V0.81599C11.3776 0.613324 11.4202 0.469324 11.5056 0.38399C11.6016 0.28799 11.7509 0.23999 11.9536 0.23999H17.2816C18.4762 0.23999 19.2976 0.490657 19.7456 0.99199C20.2042 1.48266 20.4336 2.12266 20.4336 2.91199V3.64799C20.4336 4.09599 20.3642 4.47999 20.2256 4.79999C20.0976 5.10932 19.8682 5.33332 19.5376 5.47199C20.1136 5.53599 20.5776 5.77066 20.9296 6.17599C21.2922 6.58132 21.4736 7.11999 21.4736 7.79199V11.184C21.4736 11.3867 21.4256 11.536 21.3296 11.632C21.2442 11.7173 21.1002 11.76 20.8976 11.76H18.4176C18.2149 11.76 18.0656 11.7173 17.9696 11.632C17.8842 11.536 17.8416 11.3867 17.8416 11.184V8.73599C17.8416 8.50132 17.7936 8.33066 17.6976 8.22399C17.6122 8.10666 17.4576 8.04799 17.2336 8.04799H14.9936V11.184C14.9936 11.3867 14.9456 11.536 14.8496 11.632C14.7642 11.7173 14.6202 11.76 14.4176 11.76Z" fill="white"/>
<path d="M3.52731 11.76H1.04731C0.844646 11.76 0.695313 11.7173 0.599313 11.632C0.51398 11.536 0.471313 11.3867 0.471313 11.184V0.81599C0.471313 0.613324 0.51398 0.469324 0.599313 0.38399C0.695313 0.28799 0.844646 0.23999 1.04731 0.23999H5.94331C7.39397 0.23999 8.38597 0.52799 8.91931 1.10399C9.45264 1.67999 9.71931 2.43199 9.71931 3.35999V5.40799C9.71931 6.33599 9.45264 7.08799 8.91931 7.66399C8.38597 8.23999 7.39397 8.52799 5.94331 8.52799H4.10331V11.184C4.10331 11.3867 4.05531 11.536 3.95931 11.632C3.87398 11.7173 3.72998 11.76 3.52731 11.76ZM4.07131 3.23199V5.64799H5.51131C5.82064 5.64799 6.02331 5.56799 6.11931 5.40799C6.21531 5.24799 6.26331 5.06666 6.26331 4.86399V4.01599C6.26331 3.81332 6.21531 3.63199 6.11931 3.47199C6.02331 3.31199 5.82064 3.23199 5.51131 3.23199H4.07131Z" fill="white"/>
</svg>
