<svg width="95" height="12" viewBox="0 0 95 12" fill="none" xmlns="http://www.w3.org/2000/svg">
<path d="M89.9873 12H84.3706C84.1595 12 84.004 11.9556 83.904 11.8667C83.8151 11.7667 83.7706 11.6111 83.7706 11.4V0.6C83.7706 0.388889 83.8151 0.238889 83.904 0.15C84.004 0.05 84.1595 0 84.3706 0H89.9873C91.3762 0 92.404 0.277778 93.0706 0.833333C93.7484 1.38889 94.0873 2.24444 94.0873 3.4V8.6C94.0873 9.75556 93.7484 10.6111 93.0706 11.1667C92.404 11.7222 91.3762 12 89.9873 12ZM87.554 3.18333V8.85H89.5373C89.804 8.85 89.9984 8.78333 90.1206 8.65C90.254 8.51667 90.3206 8.31111 90.3206 8.03333V3.98333C90.3206 3.70555 90.254 3.50556 90.1206 3.38333C89.9984 3.25 89.804 3.18333 89.5373 3.18333H87.554Z" fill="white"/>
<path d="M75.1513 3V5.13333H76.4013C76.6902 5.13333 76.8846 5.06111 76.9846 4.91667C77.0846 4.76111 77.1346 4.57222 77.1346 4.35V3.78333C77.1346 3.56111 77.0846 3.37778 76.9846 3.23333C76.8846 3.07778 76.6902 3 76.4013 3H75.1513ZM74.5513 12H71.9846C71.7735 12 71.618 11.9556 71.518 11.8667C71.4291 11.7667 71.3846 11.6111 71.3846 11.4V0.6C71.3846 0.388889 71.4291 0.238889 71.518 0.15C71.618 0.05 71.7735 0 71.9846 0H77.5346C78.7791 0 79.6346 0.261111 80.1013 0.783333C80.5791 1.29444 80.818 1.96111 80.818 2.78333V3.55C80.818 4.01667 80.7458 4.41667 80.6013 4.75C80.468 5.07222 80.2291 5.30556 79.8846 5.45C80.4846 5.51667 80.968 5.76111 81.3346 6.18333C81.7124 6.60556 81.9013 7.16667 81.9013 7.86667V11.4C81.9013 11.6111 81.8513 11.7667 81.7513 11.8667C81.6624 11.9556 81.5124 12 81.3013 12H78.718C78.5069 12 78.3513 11.9556 78.2513 11.8667C78.1624 11.7667 78.118 11.6111 78.118 11.4V8.85C78.118 8.60556 78.068 8.42778 77.968 8.31667C77.8791 8.19444 77.718 8.13333 77.4846 8.13333H75.1513V11.4C75.1513 11.6111 75.1013 11.7667 75.0013 11.8667C74.9124 11.9556 74.7624 12 74.5513 12Z" fill="white"/>
<path d="M63.5601 3.5L62.7768 6.03333H65.3934L64.6101 3.5C64.5656 3.4 64.5156 3.32778 64.4601 3.28333C64.4156 3.23889 64.3601 3.21667 64.2934 3.21667H63.8768C63.8101 3.21667 63.749 3.23889 63.6934 3.28333C63.649 3.32778 63.6045 3.4 63.5601 3.5ZM62.6101 11.4C62.6101 11.6111 62.5601 11.7667 62.4601 11.8667C62.3712 11.9556 62.2212 12 62.0101 12H59.5601C59.349 12 59.1934 11.9556 59.0934 11.8667C59.0045 11.7667 58.9601 11.6111 58.9601 11.4V7C58.9601 6.66667 59.0101 6.28333 59.1101 5.85C59.2212 5.41667 59.3879 4.91111 59.6101 4.33333L61.0601 0.55C61.1268 0.361111 61.2268 0.222222 61.3601 0.133334C61.5045 0.0444445 61.6879 0 61.9101 0H66.3934C66.6045 0 66.7768 0.0444445 66.9101 0.133334C67.0545 0.222222 67.1601 0.361111 67.2268 0.55L68.6768 4.33333C68.899 4.91111 69.0601 5.41667 69.1601 5.85C69.2712 6.28333 69.3268 6.66667 69.3268 7V11.4C69.3268 11.6111 69.2767 11.7667 69.1767 11.8667C69.0879 11.9556 68.9379 12 68.7267 12H66.2101C65.9879 12 65.8212 11.9556 65.7101 11.8667C65.6101 11.7667 65.5601 11.6111 65.5601 11.4V9.06667H62.6101V11.4Z" fill="white"/>
<path d="M52.9918 12H47.3751C47.164 12 47.0085 11.9556 46.9085 11.8667C46.8196 11.7667 46.7751 11.6111 46.7751 11.4V0.6C46.7751 0.388889 46.8196 0.238889 46.9085 0.15C47.0085 0.05 47.164 0 47.3751 0H52.9918C54.3807 0 55.4085 0.277778 56.0751 0.833333C56.7529 1.38889 57.0918 2.24444 57.0918 3.4V8.6C57.0918 9.75556 56.7529 10.6111 56.0751 11.1667C55.4085 11.7222 54.3807 12 52.9918 12ZM50.5585 3.18333V8.85H52.5418C52.8085 8.85 53.0029 8.78333 53.1251 8.65C53.2585 8.51667 53.3251 8.31111 53.3251 8.03333V3.98333C53.3251 3.70555 53.2585 3.50556 53.1251 3.38333C53.0029 3.25 52.8085 3.18333 52.5418 3.18333H50.5585Z" fill="white"/>
<path d="M37.3264 12H34.8264C34.6153 12 34.4597 11.9556 34.3597 11.8667C34.2708 11.7667 34.2264 11.6111 34.2264 11.4V0.6C34.2264 0.388889 34.2708 0.238889 34.3597 0.15C34.4597 0.05 34.6153 0 34.8264 0H36.5597C36.7708 0 36.9486 0.0333332 37.093 0.0999997C37.2486 0.166667 37.3986 0.283334 37.543 0.45L40.7764 4.15V0.6C40.7764 0.388889 40.8208 0.238889 40.9097 0.15C41.0097 0.05 41.1653 0 41.3764 0H43.8764C44.0875 0 44.2375 0.05 44.3264 0.15C44.4264 0.238889 44.4764 0.388889 44.4764 0.6V11.4C44.4764 11.6111 44.4264 11.7667 44.3264 11.8667C44.2375 11.9556 44.0875 12 43.8764 12H41.3764C41.1653 12 41.0097 11.9556 40.9097 11.8667C40.8208 11.7667 40.7764 11.6111 40.7764 11.4V9.35L37.9264 5.9V11.4C37.9264 11.6111 37.8764 11.7667 37.7764 11.8667C37.6875 11.9556 37.5375 12 37.3264 12Z" fill="white"/>
<path d="M26.4018 3.5L25.6185 6.03333H28.2352L27.4518 3.5C27.4074 3.4 27.3574 3.32778 27.3018 3.28333C27.2574 3.23889 27.2018 3.21667 27.1352 3.21667H26.7185C26.6518 3.21667 26.5907 3.23889 26.5352 3.28333C26.4907 3.32778 26.4463 3.4 26.4018 3.5ZM25.4518 11.4C25.4518 11.6111 25.4018 11.7667 25.3018 11.8667C25.2129 11.9556 25.0629 12 24.8518 12H22.4018C22.1907 12 22.0352 11.9556 21.9352 11.8667C21.8463 11.7667 21.8018 11.6111 21.8018 11.4V7C21.8018 6.66667 21.8518 6.28333 21.9518 5.85C22.0629 5.41667 22.2296 4.91111 22.4518 4.33333L23.9018 0.55C23.9685 0.361111 24.0685 0.222222 24.2018 0.133334C24.3463 0.0444445 24.5296 0 24.7518 0H29.2352C29.4463 0 29.6185 0.0444445 29.7518 0.133334C29.8963 0.222222 30.0018 0.361111 30.0685 0.55L31.5185 4.33333C31.7407 4.91111 31.9018 5.41667 32.0018 5.85C32.1129 6.28333 32.1685 6.66667 32.1685 7V11.4C32.1685 11.6111 32.1185 11.7667 32.0185 11.8667C31.9296 11.9556 31.7796 12 31.5685 12H29.0518C28.8296 12 28.6629 11.9556 28.5518 11.8667C28.4518 11.7667 28.4018 11.6111 28.4018 11.4V9.06667H25.4518V11.4Z" fill="white"/>
<path d="M17.4482 12H14.7482C14.5371 12 14.3815 11.9556 14.2815 11.8667C14.1927 11.7667 14.1482 11.6111 14.1482 11.4V3.21667H11.6982C11.4871 3.21667 11.3315 3.17222 11.2315 3.08333C11.1427 2.98333 11.0982 2.82778 11.0982 2.61667V0.6C11.0982 0.388889 11.1427 0.238889 11.2315 0.15C11.3315 0.05 11.4871 0 11.6982 0H20.4982C20.7093 0 20.8593 0.05 20.9482 0.15C21.0482 0.238889 21.0982 0.388889 21.0982 0.6V2.61667C21.0982 2.82778 21.0482 2.98333 20.9482 3.08333C20.8593 3.17222 20.7093 3.21667 20.4982 3.21667H18.0482V11.4C18.0482 11.6111 17.9982 11.7667 17.8982 11.8667C17.8093 11.9556 17.6593 12 17.4482 12Z" fill="white"/>
<path d="M6.67123 12H1.40457C1.19345 12 1.0379 11.9556 0.937899 11.8667C0.84901 11.7667 0.804565 11.6111 0.804565 11.4V9.45C0.804565 9.23889 0.84901 9.08889 0.937899 9C1.0379 8.9 1.19345 8.85 1.40457 8.85H5.8879C6.03234 8.85 6.1379 8.80556 6.20457 8.71667C6.28235 8.61667 6.32123 8.5 6.32123 8.36667C6.32123 8.17778 6.28235 8.03889 6.20457 7.95C6.1379 7.86111 6.03234 7.81111 5.8879 7.8L3.3879 7.45C2.61012 7.33889 1.98234 7.08333 1.50457 6.68333C1.0379 6.28333 0.804565 5.61667 0.804565 4.68333V2.93333C0.804565 1.98889 1.11012 1.26667 1.72123 0.766667C2.33234 0.255556 3.17679 0 4.25457 0H8.92124C9.13235 0 9.28235 0.05 9.37123 0.15C9.47123 0.238889 9.52123 0.388889 9.52123 0.6V2.58333C9.52123 2.79444 9.47123 2.95 9.37123 3.05C9.28235 3.13889 9.13235 3.18333 8.92124 3.18333H5.0379C4.89346 3.18333 4.78234 3.23333 4.70457 3.33333C4.62679 3.42222 4.5879 3.53889 4.5879 3.68333C4.5879 3.82778 4.62679 3.95 4.70457 4.05C4.78234 4.15 4.89346 4.20556 5.0379 4.21667L7.52123 4.55C8.29901 4.66111 8.92679 4.91667 9.40457 5.31667C9.88235 5.71667 10.1212 6.38333 10.1212 7.31667V9.06667C10.1212 10.0111 9.81012 10.7389 9.1879 11.25C8.57679 11.75 7.7379 12 6.67123 12Z" fill="white"/>
</svg>
